# xmcd CD database file generated by Grip 3.2.0
# 
# Track frame offsets:
#       150
#       27869
#       43886
#       59983
#       81349
#       95053
#       113180
#       134070
#       154518
#       173254
#       194346
#       215473
#       230894
#       252675
#       275168
#       290958
# 
# Disc length: 4291 seconds
# 
# Revision: 2
# Processed by: cddbd v1.5.2PL0 Copyright (c) Steve Scherf et al.
# Submitted via: Grip 3.2.0
# 
DISCID=0710c110
DTITLE=Various Artist - New York City Salsa Vol. 3
DYEAR=2008
DGENRE=Salsa
TTITLE0=Pete Bonet and Louie Ramirez - De 'se Mismo Trago
TTITLE1=Latin Tempo - Papa Boco
TTITLE2=Tipica 73 - Baila que Baila
TTITLE3=Chamaco Ramirez - Asi son Bongo
TTITLE4=Pipo y la Superior - Loco por Ti
TTITLE5=Joe Cuba Sextet - El Tabacón
TTITLE6=Ray Rodriguez y su Orquesta - Mi Timbal
TTITLE7=Hector Rivera - Con su Permiso
TTITLE8=Marty Galagarza y la Conquistadora - Presten Atención
TTITLE9=Los Kimbos con Adalberto Santiago - Enamorado
TTITLE10=Louie Ramirez - Sabroso Guaguanco
TTITLE11=Tommy Olivencia y su Orquesta - Los Cabezones
TTITLE12=Mark Dimond - Brujeria
TTITLE13=Justo Betancourt y su Conjunto Borincuba - Ella esta en otra Rumba
TTITLE14=Orquesta Flamboyan - Aprovechate
TTITLE15=La Muralla - Avisale
EXTD=YEAR: 2008
EXTT0=
EXTT1=
EXTT2=
EXTT3=
EXTT4=
EXTT5=
EXTT6=
EXTT7=
EXTT8=
EXTT9=
EXTT10=
EXTT11=
EXTT12=
EXTT13=
EXTT14=
EXTT15=
PLAYORDER=
